<?xml version="1.0" encoding="utf-8"?>
<svg xmlns="http://www.w3.org/2000/svg" xmlns:xlink="http://www.w3.org/1999/xlink" width="200" height="35" viewBox="0 0 200 35">
  <path d="M24.887,2.513l0,30.103l-2.196,0l0,-23.562l-10.03,17.377l-10.465,-17.377l0,23.562l-2.196,0l0,-30.103l0.969,0l11.692,19.525l11.289,-19.525l0.937,0Z" style="fill-rule:nonzero;"/>
  <path d="M43.459,20.73c-0.29,-0.495 -0.651,-0.964 -1.082,-1.405c-1.335,-1.324 -2.939,-1.986 -4.812,-1.986c-1.863,0 -3.456,0.662 -4.781,1.986c-0.441,0.441 -0.807,0.91 -1.098,1.405l11.773,0Zm0.84,4.377l2.1,0c-0.205,2.034 -1.056,3.8 -2.552,5.297c-1.734,1.733 -3.828,2.6 -6.282,2.6c-2.444,0 -4.536,-0.867 -6.275,-2.6c-1.738,-1.734 -2.608,-3.828 -2.608,-6.283c0,-2.444 0.87,-4.535 2.608,-6.274c1.739,-1.739 3.831,-2.608 6.275,-2.608c2.454,0 4.548,0.867 6.282,2.6c1.443,1.454 2.282,3.144 2.519,5.071l-15.487,0c-0.065,0.399 -0.097,0.802 -0.097,1.211c0,1.874 0.664,3.473 1.994,4.797c1.33,1.324 2.926,1.986 4.789,1.986c1.873,0 3.477,-0.662 4.812,-1.986c1.088,-1.087 1.728,-2.358 1.922,-3.811Z" style="fill-rule:nonzero;"/>
  <path d="M64.47,25.446l0,-3.214c-0.28,-1.174 -0.877,-2.218 -1.792,-3.133c-1.303,-1.314 -2.886,-1.97 -4.748,-1.97c-1.841,0 -3.419,0.654 -4.732,1.962c-1.314,1.308 -1.971,2.888 -1.971,4.74c0,1.852 0.657,3.432 1.971,4.74c1.313,1.308 2.891,1.962 4.732,1.962c1.862,0 3.445,-0.651 4.748,-1.954c0.915,-0.915 1.512,-1.96 1.792,-3.133Zm0,-7.478l0,-2.664l2.197,0l0,17.312l-2.197,0l0,-2.923c-0.107,0.119 -0.215,0.237 -0.323,0.355c-1.722,1.712 -3.795,2.568 -6.217,2.568c-2.423,0 -4.493,-0.858 -6.21,-2.576c-1.717,-1.717 -2.576,-3.787 -2.576,-6.209c0,-2.423 0.859,-4.493 2.576,-6.21c1.717,-1.717 3.787,-2.576 6.21,-2.576c2.422,0 4.495,0.856 6.217,2.568c0.108,0.118 0.216,0.237 0.323,0.355Z" style="fill-rule:nonzero;"/>
  <path d="M75.888,32.616c-1.001,-0.032 -1.911,-0.377 -2.729,-1.033c-1.163,-0.819 -1.766,-2.03 -1.809,-3.634l0,-25.436l2.229,0l0,24.677c0,1.324 0.328,2.202 0.985,2.632c0.409,0.323 0.851,0.501 1.324,0.533l0,2.261Z" style="fill-rule:nonzero;"/>
  <path d="M94.816,3.789c-3.768,0 -6.996,1.346 -9.682,4.037c-2.686,2.692 -4.029,5.916 -4.029,9.674c0,3.779 1.343,7.009 4.029,9.69c2.686,2.681 5.914,4.021 9.682,4.021c3.8,0 7.041,-1.34 9.722,-4.021c2.681,-2.681 4.021,-5.911 4.021,-9.69c0,-3.758 -1.34,-6.982 -4.021,-9.674c-2.681,-2.691 -5.922,-4.037 -9.722,-4.037Zm16.101,13.711c0,4.447 -1.572,8.242 -4.715,11.386c-3.144,3.144 -6.94,4.715 -11.386,4.715c-4.425,0 -8.215,-1.571 -11.37,-4.715c-3.154,-3.144 -4.732,-6.939 -4.732,-11.386c0,-4.436 1.578,-8.228 4.732,-11.378c3.155,-3.149 6.945,-4.723 11.37,-4.723c4.446,0 8.242,1.574 11.386,4.723c3.143,3.15 4.715,6.942 4.715,11.378Z" style="fill-rule:nonzero;"/>
  <path d="M94.816,10.907c-1.812,0 -3.364,0.647 -4.656,1.941c-1.291,1.295 -1.937,2.845 -1.937,4.652c0,1.817 0.646,3.37 1.937,4.659c1.292,1.29 2.844,1.934 4.656,1.934c1.827,0 3.386,-0.644 4.675,-1.934c1.289,-1.289 1.933,-2.842 1.933,-4.659c0,-1.807 -0.644,-3.357 -1.933,-4.652c-1.289,-1.294 -2.848,-1.941 -4.675,-1.941Zm7.742,6.593c0,2.138 -0.756,3.963 -2.267,5.475c-1.512,1.512 -3.337,2.267 -5.475,2.267c-2.128,0 -3.95,-0.755 -5.467,-2.267c-1.517,-1.512 -2.275,-3.337 -2.275,-5.475c0,-2.133 0.758,-3.957 2.275,-5.471c1.517,-1.514 3.339,-2.271 5.467,-2.271c2.138,0 3.963,0.757 5.475,2.271c1.511,1.514 2.267,3.338 2.267,5.471Z" style="fill-rule:nonzero;"/>
  <path d="M129.958,24.606l2.261,0c-0.172,2.175 -1.044,4.048 -2.616,5.62c-1.744,1.755 -3.865,2.633 -6.363,2.633c-2.487,0 -4.611,-0.878 -6.371,-2.633c-1.761,-1.755 -2.641,-3.87 -2.641,-6.347c0,-2.465 0.88,-4.578 2.641,-6.339c1.76,-1.76 3.884,-2.64 6.371,-2.64c1.173,0 2.288,0.204 3.343,0.614l-1.551,1.825c-0.592,-0.151 -1.189,-0.227 -1.792,-0.227c-1.841,0 -3.424,0.663 -4.748,1.987c-1.325,1.324 -1.987,2.918 -1.987,4.78c0,1.874 0.662,3.47 1.987,4.789c1.324,1.319 2.907,1.978 4.748,1.978c1.852,0 3.44,-0.662 4.764,-1.986c1.13,-1.12 1.782,-2.471 1.954,-4.054Z" style="fill-rule:nonzero;"/>
  <path d="M140.472,32.616c-1.002,-0.032 -1.911,-0.377 -2.73,-1.033c-1.163,-0.819 -1.765,-2.03 -1.809,-3.634l0,-25.436l2.229,0l0,24.677c0,1.324 0.329,2.202 0.985,2.632c0.409,0.323 0.851,0.501 1.325,0.533l0,2.261Z" style="fill-rule:nonzero;"/>
  <path d="M152.132,17.258c-1.927,0 -3.575,0.686 -4.942,2.059c-1.367,1.373 -2.051,3.017 -2.051,4.934c0,1.927 0.684,3.574 2.051,4.942c1.367,1.367 3.015,2.051 4.942,2.051c1.938,0 3.588,-0.684 4.95,-2.051c1.362,-1.368 2.043,-3.015 2.043,-4.942c0,-1.917 -0.681,-3.561 -2.043,-4.934c-1.362,-1.373 -3.012,-2.059 -4.95,-2.059Zm9.141,6.993c0,2.53 -0.891,4.688 -2.673,6.476c-1.782,1.787 -3.938,2.681 -6.468,2.681c-2.52,0 -4.676,-0.894 -6.468,-2.681c-1.793,-1.788 -2.689,-3.946 -2.689,-6.476c0,-2.52 0.896,-4.676 2.689,-6.468c1.792,-1.793 3.948,-2.689 6.468,-2.689c2.53,0 4.686,0.896 6.468,2.689c1.782,1.792 2.673,3.948 2.673,6.468Z" style="fill-rule:nonzero;"/>
  <path d="M179.99,24.606l2.261,0c-0.172,2.175 -1.044,4.048 -2.616,5.62c-1.744,1.755 -3.865,2.633 -6.363,2.633c-2.487,0 -4.611,-0.878 -6.371,-2.633c-1.76,-1.755 -2.641,-3.87 -2.641,-6.347c0,-2.465 0.881,-4.578 2.641,-6.339c1.76,-1.76 3.884,-2.64 6.371,-2.64c1.174,0 2.288,0.204 3.343,0.614l-1.55,1.825c-0.593,-0.151 -1.19,-0.227 -1.793,-0.227c-1.841,0 -3.424,0.663 -4.748,1.987c-1.324,1.324 -1.987,2.918 -1.987,4.78c0,1.874 0.663,3.47 1.987,4.789c1.324,1.319 2.907,1.978 4.748,1.978c1.852,0 3.44,-0.662 4.764,-1.986c1.131,-1.12 1.782,-2.471 1.954,-4.054Z" style="fill-rule:nonzero;"/>
  <path d="M192.022,24.251l-4.829,8.365l-2.196,0l0,-30.103l2.196,0l0,25.694l7.494,-12.968l2.535,0l-4.086,7.074c1.605,0.355 3.026,1.152 4.264,2.39c1.733,1.744 2.6,3.838 2.6,6.282l0,1.631l-2.083,0l0,-1.631c0,-1.862 -0.662,-3.461 -1.987,-4.796c-1.109,-1.109 -2.411,-1.755 -3.908,-1.938Z" style="fill-rule:nonzero;"/>
</svg>
